<svg id="Capa_1" data-name="Capa 1" xmlns="http://www.w3.org/2000/svg" viewBox="0 0 120 120"><defs><style>.cls-1{fill:#f1f3f9;}.cls-2{fill:#005866;}</style></defs><title>ndt</title><circle class="cls-1" cx="60" cy="60" r="60"/><path class="cls-2" d="M43.28,86.4H36.23V55.33H16.57V86.4h-7V48.28h7V55a7,7,0,0,1,7.06-6.73h12.6a6.86,6.86,0,0,1,2.75.55,7.11,7.11,0,0,1,2.24,1.5,7.22,7.22,0,0,1,1.5,2.24,6.91,6.91,0,0,1,.56,2.76Z"/><path class="cls-2" d="M46.66,55.33a6.91,6.91,0,0,1,.56-2.76,7.22,7.22,0,0,1,1.5-2.24A7.11,7.11,0,0,1,51,48.83a6.82,6.82,0,0,1,2.72-.55H73.34V33.6h7V86.4h-7V80a6.43,6.43,0,0,1-.72,2.5,7.23,7.23,0,0,1-1.56,2.06A7,7,0,0,1,68.9,85.9a6.59,6.59,0,0,1-2.58.5H53.68A6.82,6.82,0,0,1,51,85.85a7,7,0,0,1-2.24-1.51,7.06,7.06,0,0,1-1.5-2.23,6.91,6.91,0,0,1-.56-2.76Zm7,24H73.34v-24H53.68Z"/><path class="cls-2" d="M81.55,48.28h9.31V36.53h7.06V48.28h12.52v7H97.92v24h12.52V86.4H97.92a6.83,6.83,0,0,1-2.73-.55,7.12,7.12,0,0,1-2.25-1.51,6.79,6.79,0,0,1-1.52-2.23,6.91,6.91,0,0,1-.56-2.76v-24H81.55Z"/></svg>